<?xml version="1.0" encoding="utf-8"?>
<!-- Generator: Adobe Illustrator 22.1.0, SVG Export Plug-In . SVG Version: 6.00 Build 0)  -->
<svg version="1.1" xmlns="http://www.w3.org/2000/svg" xmlns:xlink="http://www.w3.org/1999/xlink" x="0px" y="0px"
	 viewBox="0 0 432 432" style="enable-background:new 0 0 432 432;" xml:space="preserve">
<style type="text/css">
	.st0{display:none;}
	.st1{fill:url(#SVGID_1_);}
	.st2{fill:url(#SVGID_2_);}
	.st3{fill:url(#SVGID_3_);}
	.st4{fill:url(#SVGID_4_);}
	.st5{fill:#FFFFFF;}
	.st6{fill:#F062A4;}
	.st7{fill:url(#SVGID_5_);}
	.st8{fill:#EF569F;}
	.st9{fill:url(#SVGID_6_);}
	.st10{fill:url(#SVGID_7_);}
	.st11{fill:url(#SVGID_8_);}
	.st12{fill:url(#SVGID_9_);}
	.st13{fill:url(#SVGID_10_);}
	.st14{fill:url(#SVGID_11_);}
</style>
<g id="Layer_2" class="st0">
	
		<image style="display:inline;overflow:visible;" width="1280" height="853" xlink:href="../../../private/var/folders/pb/pvh9g7y943zdqfzwb2yt2t900000gn/T/zpb6Q1j.jpg"  transform="matrix(0.4366 0 0 0.4366 -24 33)">
	</image>
</g>
<g id="Layer_1">
	<g>
		
			<radialGradient id="SVGID_1_" cx="230.8829" cy="196.3565" r="200.7435" gradientTransform="matrix(0.7987 0.6018 -0.349 0.4631 115.0062 -33.5237)" gradientUnits="userSpaceOnUse">
			<stop  offset="0" style="stop-color:#F5A2C6"/>
			<stop  offset="1" style="stop-color:#ED1B8F"/>
		</radialGradient>
		<path class="st1" d="M330.8,257.6c0,0,84-61.3,94-6.3c16.9,92.9-144.7,104.5-190,101.3C174.6,348.4,69,231.3,42.6,184.8
			S-1.7,117.2,25.7,81.3c39.1-51.1,82.3,0,82.3,0s48.6-27.4,146.7,53.8S332.9,243.9,330.8,257.6z"/>
	</g>
	<linearGradient id="SVGID_2_" gradientUnits="userSpaceOnUse" x1="47.8919" y1="79.2384" x2="105.954" y2="79.2384">
		<stop  offset="0" style="stop-color:#ED1B8F"/>
		<stop  offset="1" style="stop-color:#ED1B8F"/>
	</linearGradient>
	<ellipse class="st2" cx="76.9" cy="79.2" rx="29" ry="24.3"/>
	<g>
		<linearGradient id="SVGID_3_" gradientUnits="userSpaceOnUse" x1="97.4991" y1="74.3275" x2="74.1557" y2="50.984">
			<stop  offset="0" style="stop-color:#F5A2C6"/>
			<stop  offset="0.1278" style="stop-color:#F38AB8"/>
			<stop  offset="0.2993" style="stop-color:#F06EA9"/>
			<stop  offset="0.473" style="stop-color:#EF529D"/>
			<stop  offset="0.6471" style="stop-color:#ED3A95"/>
			<stop  offset="0.8223" style="stop-color:#ED2590"/>
			<stop  offset="1" style="stop-color:#ED1B8F"/>
		</linearGradient>
		<path class="st3" d="M59.5,67.6c3.6-7.2,38-41.2,46.4-38s-8.4,51.7-22.2,57s-22.2,5.3-25.3,2.1C55.3,85.6,57.4,71.8,59.5,67.6z"/>
	</g>
	<g>
		<linearGradient id="SVGID_4_" gradientUnits="userSpaceOnUse" x1="233.1628" y1="338.4258" x2="314.8302" y2="338.4258">
			<stop  offset="0" style="stop-color:#ED1B8F"/>
			<stop  offset="1" style="stop-color:#ED1B8F"/>
		</linearGradient>
		<path class="st4" d="M256.4,318.3c7.4,1.1,9.5,9.5,9.5,9.5s40.1-6.3,48.6,4.2c3.3,4.1-15.1,23.8-46.4,26.4
			c-12.7,1.1-34.8-20.1-34.8-20.1"/>
		<path class="st5" d="M256.4,318.2c1.2,0.2,2.4,0.5,3.4,1.1c1.1,0.6,2,1.3,2.9,2.2c0.8,0.9,1.5,1.9,2.1,2.9
			c0.6,1.1,1.1,2.1,1.4,3.3l-0.4-0.3c6.1-1,12.3-1.7,18.4-2c6.2-0.3,12.4-0.4,18.6,0.6c3.1,0.5,6.2,1.2,9.1,2.8l1.1,0.6l1,0.8
			c0.3,0.3,0.6,0.6,0.9,0.9c0.2,0.2,0.7,0.9,0.8,1.4c0.2,1.1-0.1,2-0.4,2.9c-0.3,0.8-0.7,1.5-1.2,2.2c-1.8,2.7-4.1,5-6.5,7
			c-2.4,2-5,3.8-7.7,5.4c-5.4,3.2-11.3,5.7-17.3,7.4c-3,0.9-6.1,1.5-9.2,1.9l-2.3,0.3l-2.3,0.2c-0.4,0-0.8,0.1-1.2,0.1
			c-0.4,0-0.9,0-1.3,0c-0.9,0-1.7-0.2-2.5-0.4c-3.2-0.7-6.2-2.1-8.9-3.6c-1.4-0.8-2.7-1.6-4-2.4c-1.3-0.9-2.6-1.8-3.8-2.7
			c-5-3.7-9.6-7.8-13.9-12.3l0.2-0.2c2.4,1.9,4.8,3.9,7.3,5.7c2.5,1.8,5,3.6,7.5,5.3c2.6,1.6,5.2,3.2,7.9,4.5c2.7,1.3,5.5,2.5,8.3,3
			c0.7,0.1,1.4,0.2,2.1,0.2c0.3,0,0.7,0,1,0c0.3,0,0.7,0,1.1-0.1l2.3-0.2l2.2-0.3c3-0.5,5.9-1.1,8.9-1.8c5.8-1.5,11.5-3.7,16.8-6.7
			c2.6-1.5,5.2-3.1,7.5-5c2.3-1.9,4.6-4,6.2-6.4c0.4-0.6,0.7-1.2,1-1.8c0.2-0.6,0.4-1.3,0.3-1.6c0,0,0-0.1,0-0.1c0,0,0-0.1-0.1-0.1
			c0,0,0-0.1-0.1-0.1l-0.2-0.2c-0.2-0.2-0.4-0.5-0.7-0.7l-0.8-0.7l-0.9-0.6c-2.5-1.4-5.5-2.3-8.4-2.8c-6-1-12.2-1.1-18.3-1
			c-6.1,0.2-12.3,0.7-18.4,1.5l-0.3,0l-0.1-0.3c-0.3-1.1-0.7-2.2-1.3-3.2c-0.5-1-1.2-2-2-2.9c-0.8-0.9-1.7-1.6-2.7-2.2
			c-1-0.6-2.1-0.9-3.3-1.2L256.4,318.2z"/>
	</g>
	<g>
		<path class="st6" d="M324.8,226c6.4-3.8,13.4,1.5,13.4,1.5s27.4-30,40.6-27c5.1,1.2,3.1,28-19.8,49.6c-9.2,8.7-39.7,6.1-39.7,6.1"
			/>
		<path class="st5" d="M324.7,225.9c1.1-0.6,2.2-1.1,3.4-1.3c1.2-0.2,2.4-0.3,3.6-0.1c1.2,0.2,2.4,0.5,3.5,1c1.1,0.5,2.2,1,3.2,1.7
			l-0.5,0c4.2-4.6,8.5-8.9,13.1-13.1c4.6-4.1,9.5-8,14.9-11.2c2.7-1.5,5.6-2.9,8.9-3.5l1.2-0.2l1.3,0c0.4,0,0.9,0.1,1.3,0.1
			c0.3,0,1.1,0.2,1.5,0.6c0.9,0.8,1.2,1.6,1.5,2.5c0.2,0.8,0.4,1.7,0.5,2.5c0.3,3.3-0.1,6.4-0.7,9.5c-0.7,3.1-1.5,6.1-2.7,9.1
			c-2.2,5.9-5.3,11.5-8.9,16.5c-1.8,2.6-3.9,5-6,7.3l-1.6,1.7l-1.7,1.6c-0.3,0.3-0.6,0.5-0.9,0.8c-0.3,0.3-0.7,0.6-1,0.8
			c-0.7,0.5-1.4,0.9-2.2,1.3c-3,1.4-6.1,2.2-9.2,2.7c-1.6,0.3-3.1,0.4-4.7,0.6c-1.6,0.1-3.1,0.2-4.7,0.3c-6.2,0.2-12.4-0.1-18.6-1
			l0-0.3c3.1,0,6.2,0,9.2-0.1c3.1-0.1,6.1-0.3,9.2-0.6c3-0.3,6.1-0.8,9-1.4c2.9-0.7,5.8-1.5,8.4-2.8c0.6-0.3,1.2-0.7,1.8-1.1
			c0.3-0.2,0.5-0.4,0.8-0.6c0.2-0.2,0.5-0.5,0.8-0.7l1.6-1.6l1.6-1.7c2-2.2,4-4.6,5.8-7c3.6-4.8,6.7-10.1,9-15.7
			c1.1-2.8,2.1-5.7,2.8-8.6c0.7-2.9,1.1-5.9,0.9-8.8c0-0.7-0.2-1.4-0.3-2.1c-0.2-0.6-0.5-1.2-0.8-1.5c0,0-0.1-0.1-0.1-0.1
			c0,0-0.1,0-0.1,0c0,0,0,0-0.1-0.1l-0.3,0c-0.3,0-0.7-0.1-1-0.1l-1,0l-1.1,0.1c-2.9,0.4-5.7,1.6-8.3,3.1
			c-5.3,2.9-10.2,6.7-14.9,10.6c-4.7,4-9.2,8.2-13.4,12.6l-0.2,0.2l-0.3-0.2c-0.9-0.7-1.9-1.3-3-1.7c-1.1-0.5-2.2-0.8-3.3-1
			c-1.1-0.2-2.3-0.2-3.5,0c-1.2,0.1-2.2,0.6-3.3,1.1L324.7,225.9z"/>
	</g>
	<g>
		<linearGradient id="SVGID_5_" gradientUnits="userSpaceOnUse" x1="45.2318" y1="200.1286" x2="100.1548" y2="200.1286">
			<stop  offset="0" style="stop-color:#ED1B8F"/>
			<stop  offset="1" style="stop-color:#ED1B8F"/>
		</linearGradient>
		<path class="st7" d="M47.9,188c0,0-14.8,32.7,25.3,25.3c40.1-7.4,28.5-13.7,9.5-27.4"/>
		<path class="st5" d="M48,188c-1.6,4-2.5,8.3-2.3,12.5c0.1,2.1,0.5,4.2,1.5,6c0.9,1.8,2.3,3.4,4.1,4.4c1.7,1.1,3.7,1.7,5.8,2
			c2,0.4,4.2,0.4,6.3,0.4c4.2-0.1,8.4-0.9,12.6-1.8c4.2-0.9,8.4-1.9,12.4-3.2c2-0.6,4-1.3,5.9-2.2c0.5-0.2,0.9-0.4,1.3-0.7l0.6-0.4
			l0.6-0.4c0.4-0.2,0.7-0.6,1-0.8c0.1-0.2,0.3-0.3,0.4-0.4c0.1-0.1,0.2-0.3,0.3-0.4c0.3-0.6,0.3-1.2,0-2c-0.3-0.8-0.8-1.6-1.5-2.3
			c-1.3-1.6-2.9-3-4.5-4.4c-3.2-2.8-6.6-5.5-9.9-8.4l0.2-0.2c3.7,2.2,7.5,4.4,11,6.9c1.8,1.3,3.5,2.6,5.1,4.3c0.8,0.8,1.5,1.8,2.1,3
			c0.1,0.3,0.3,0.6,0.3,1c0.1,0.4,0.2,0.7,0.2,1.1c0,0.8-0.1,1.5-0.4,2.2c-0.2,0.3-0.3,0.7-0.5,0.9L100,206
			c-0.5,0.4-0.9,0.9-1.4,1.2c-0.5,0.4-1,0.7-1.5,1c-0.5,0.3-1,0.5-1.5,0.8c-2.1,0.9-4.2,1.6-6.3,2.2c-4.3,1.1-8.5,2-12.8,2.7
			c-4.2,0.8-8.6,1.4-13,1.4c-2.2-0.1-4.4-0.1-6.6-0.6c-2.2-0.5-4.4-1.2-6.3-2.5c-1.9-1.3-3.4-3.1-4.4-5.2c-0.9-2.1-1.3-4.3-1.3-6.5
			c0.1-4.4,1.2-8.7,3-12.7L48,188z"/>
	</g>
	<g>
		<path class="st8" d="M126.8,90.5l4.6-13c-5.7-10.6,16.8-30.9,25.8-19.9s25.9,42.8,9.6,42.2c-16.4-0.6-22.9-5.6-22.9-5.6"/>
		<path class="st5" d="M126.7,90.4l4.4-13l0,0.3c-1.2-2.3-1.2-5-0.5-7.4c0.7-2.4,1.9-4.6,3.4-6.6c1.5-2,3.2-3.8,5.1-5.4
			c1.9-1.6,4.1-2.9,6.5-3.8c1.2-0.4,2.4-0.8,3.7-0.9c1.3-0.2,2.6-0.1,3.9,0.2c1.3,0.3,2.6,0.9,3.6,1.8c0.3,0.2,0.5,0.4,0.7,0.7
			c0.2,0.2,0.5,0.5,0.7,0.7c0.4,0.5,0.8,1,1.2,1.4c3,3.9,5.6,8,8,12.3c2.4,4.3,4.6,8.7,6.2,13.4c0.8,2.4,1.4,4.8,1.6,7.4
			c0.1,1.3,0,2.7-0.3,4.1c-0.3,1.4-1,2.8-2.3,3.8c-1.2,1-2.7,1.4-4.1,1.6c-0.7,0-1.4,0-2,0l-1.8-0.2c-1.2-0.1-2.4-0.3-3.7-0.4
			c-1.2-0.2-2.4-0.4-3.6-0.7c-2.4-0.5-4.8-1.2-7.1-2.1c-2.3-0.9-4.5-1.9-6.5-3.5l0.2-0.2c2.1,1.2,4.4,1.9,6.7,2.5
			c2.3,0.6,4.7,1,7,1.3c2.4,0.3,4.7,0.5,7.1,0.5l1.8,0c0.6,0,1.1,0,1.6-0.1c1-0.1,1.9-0.5,2.5-1.1c0.6-0.6,1-1.4,1.2-2.4
			c0.2-1,0.2-2,0.1-3.2c-0.2-2.2-0.8-4.5-1.4-6.7c-1.4-4.5-3.4-8.9-5.5-13.1c-2.2-4.2-4.7-8.4-7.5-12.2c-0.3-0.5-0.7-0.9-1.1-1.4
			c-0.2-0.2-0.4-0.4-0.5-0.6c-0.2-0.2-0.4-0.4-0.6-0.6c-0.8-0.7-1.7-1.2-2.8-1.5c-1-0.3-2.1-0.4-3.2-0.3c-1.1,0.1-2.2,0.4-3.3,0.7
			c-2.2,0.8-4.2,1.9-6.1,3.4c-1.9,1.4-3.6,3.1-5,4.9c-1.5,1.8-2.7,3.9-3.4,6.1c-0.7,2.2-0.8,4.6,0.2,6.7l0.1,0.2l-0.1,0.2L127,90.5
			L126.7,90.4z"/>
	</g>
	<g>
		<path d="M58,89.1c3,1.2,6.2,1.6,9.2,0.9c3-0.7,5.7-2.4,8-4.5c2.3-2.1,4.3-4.5,6.1-7.2c1.8-2.6,3.4-5.4,4.8-8.2
			c2.9-5.6,5.1-11.7,8-17.4c1.4-2.9,2.8-5.8,4.7-8.6c0.5-0.7,0.9-1.4,1.6-2.1c0.3-0.3,0.7-0.7,1.3-1l0.2-0.1l0.2,0l0.3-0.1
			c0.2-0.1,0.4-0.1,0.6-0.2c0.8-0.2,1.7-0.3,2.6-0.3c0.4,0,0.9,0.1,1.4,0.3c0.4,0.2,0.9,0.6,0.9,1.2l-0.4,0
			c-0.1-0.3-0.4-0.4-0.7-0.4c-0.3,0-0.7,0-1,0.1c-0.7,0.2-1.4,0.5-2.1,0.8l-0.5,0.3l-0.3,0.1l-0.1,0.1c0,0,0,0,0,0
			c-0.1,0.1-0.3,0.3-0.4,0.6c-0.3,0.6-0.7,1.3-1,2c-0.6,1.4-1.2,2.9-1.7,4.4l-1.7,4.5c-1.2,3-2.5,6-4,8.8c-1.5,2.9-3.1,5.7-4.8,8.5
			c-1.7,2.8-3.5,5.5-5.5,8.2c-2,2.6-4.3,5.1-6.9,7.1c-2.6,2.1-5.7,3.7-9,4.2c-1.7,0.3-3.4,0.2-5-0.1c-1.6-0.3-3.2-0.9-4.6-1.6
			L58,89.1z"/>
	</g>
	<g>
		<path d="M29.4,108.3c-1.5-2.3-2.3-5.1-2.3-7.9c0.1-2.8,1-5.8,2.8-8.2c1.7-2.4,4.2-4.3,7-5.2c2.7-0.9,5.8-1,8.3,0.2
			c-2.5,1.3-4.4,2.6-6.1,3.9c-1.7,1.4-3.1,2.9-4.3,4.5c-1.2,1.6-2.2,3.5-3,5.6C31,103.3,30.4,105.6,29.4,108.3z"/>
	</g>
</g>
</svg>
