<?xml version="1.0" encoding="utf-8"?>
<!-- Generator: Adobe Illustrator 22.1.0, SVG Export Plug-In . SVG Version: 6.00 Build 0)  -->
<svg version="1.1" xmlns="http://www.w3.org/2000/svg" xmlns:xlink="http://www.w3.org/1999/xlink" x="0px" y="0px"
	 viewBox="0 0 432 432" style="enable-background:new 0 0 432 432;" xml:space="preserve">
<style type="text/css">
	.st0{display:none;}
	.st1{fill:url(#SVGID_1_);}
	.st2{fill:url(#SVGID_2_);}
	.st3{fill:url(#SVGID_3_);}
	.st4{fill:url(#SVGID_4_);}
	.st5{fill:#FFFFFF;}
	.st6{fill:#F062A4;}
	.st7{fill:url(#SVGID_5_);}
	.st8{fill:#EF569F;}
	.st9{fill:url(#SVGID_6_);}
	.st10{fill:url(#SVGID_7_);}
	.st11{fill:url(#SVGID_8_);}
	.st12{fill:url(#SVGID_9_);}
	.st13{fill:url(#SVGID_10_);}
	.st14{fill:url(#SVGID_11_);}
</style>
<g id="Layer_2" class="st0">
	
		<image style="display:inline;overflow:visible;" width="1280" height="853" xlink:href="../../../private/var/folders/pb/pvh9g7y943zdqfzwb2yt2t900000gn/T/zpb6Q1j.jpg"  transform="matrix(0.4366 0 0 0.4366 -476 33)">
	</image>
</g>
<g id="Layer_1">
	<g>
		
			<radialGradient id="SVGID_1_" cx="230.8829" cy="196.3565" r="200.7435" gradientTransform="matrix(0.7987 0.6018 -0.349 0.4631 115.0062 -33.5237)" gradientUnits="userSpaceOnUse">
			<stop  offset="0" style="stop-color:#F5A2C6"/>
			<stop  offset="1" style="stop-color:#ED1B8F"/>
		</radialGradient>
		<path class="st1" d="M330.8,257.6c0,0,84-61.3,94-6.3c16.9,92.9-144.7,104.5-190,101.3C174.6,348.4,69,231.3,42.6,184.8
			S-1.7,117.2,25.7,81.3c39.1-51.1,82.3,0,82.3,0s48.6-27.4,146.7,53.8S332.9,243.9,330.8,257.6z"/>
	</g>
	<linearGradient id="SVGID_2_" gradientUnits="userSpaceOnUse" x1="47.8919" y1="79.2384" x2="105.954" y2="79.2384">
		<stop  offset="0" style="stop-color:#ED1B8F"/>
		<stop  offset="1" style="stop-color:#ED1B8F"/>
	</linearGradient>
	<ellipse class="st2" cx="76.9" cy="79.2" rx="29" ry="24.3"/>
	<g>
		<linearGradient id="SVGID_3_" gradientUnits="userSpaceOnUse" x1="97.4991" y1="74.3275" x2="74.1557" y2="50.984">
			<stop  offset="0" style="stop-color:#F5A2C6"/>
			<stop  offset="0.1278" style="stop-color:#F38AB8"/>
			<stop  offset="0.2993" style="stop-color:#F06EA9"/>
			<stop  offset="0.473" style="stop-color:#EF529D"/>
			<stop  offset="0.6471" style="stop-color:#ED3A95"/>
			<stop  offset="0.8223" style="stop-color:#ED2590"/>
			<stop  offset="1" style="stop-color:#ED1B8F"/>
		</linearGradient>
		<path class="st3" d="M59.5,67.6c3.6-7.2,38-41.2,46.4-38s-8.4,51.7-22.2,57s-22.2,5.3-25.3,2.1C55.3,85.6,57.4,71.8,59.5,67.6z"/>
	</g>
	<g>
		
			<linearGradient id="SVGID_4_" gradientUnits="userSpaceOnUse" x1="257.8895" y1="304.1972" x2="339.5569" y2="304.1972" gradientTransform="matrix(3.357379e-04 -1 1 3.357379e-04 -54.301 606.0469)">
			<stop  offset="0" style="stop-color:#ED1B8F"/>
			<stop  offset="1" style="stop-color:#ED1B8F"/>
		</linearGradient>
		<path class="st4" d="M229.9,325c1.1-7.4,9.5-9.5,9.5-9.5s-6.3-40.1,4.2-48.6c4.1-3.3,23.8,15.1,26.4,46.5
			c1.1,12.7-20.1,34.8-20.1,34.8"/>
		<path class="st5" d="M229.8,325c0.2-1.2,0.5-2.4,1.1-3.4c0.6-1.1,1.3-2,2.2-2.9c0.9-0.8,1.9-1.5,2.9-2.1c1.1-0.6,2.1-1.1,3.3-1.4
			l-0.3,0.4c-1-6.1-1.7-12.3-2-18.4c-0.3-6.2-0.4-12.4,0.6-18.6c0.5-3.1,1.2-6.2,2.8-9.1l0.6-1.1l0.8-1c0.3-0.3,0.6-0.6,0.9-0.9
			c0.2-0.2,0.9-0.7,1.4-0.8c1.1-0.2,2,0.1,2.9,0.4c0.8,0.3,1.5,0.7,2.2,1.2c2.7,1.8,5,4.1,7,6.5c2,2.4,3.8,5,5.4,7.7
			c3.2,5.4,5.7,11.3,7.3,17.3c0.9,3,1.5,6.1,1.9,9.2l0.3,2.3l0.2,2.3c0,0.4,0.1,0.8,0.1,1.2c0,0.4,0,0.9,0,1.3
			c0,0.9-0.2,1.7-0.4,2.5c-0.7,3.2-2.1,6.2-3.6,8.9c-0.8,1.4-1.6,2.7-2.4,4c-0.9,1.3-1.8,2.6-2.7,3.8c-3.7,5-7.8,9.6-12.3,13.9
			l-0.2-0.2c1.9-2.4,3.9-4.8,5.7-7.3c1.8-2.5,3.6-5,5.3-7.5c1.6-2.6,3.2-5.2,4.5-7.9c1.3-2.7,2.5-5.5,3-8.3c0.1-0.7,0.2-1.4,0.2-2.1
			c0-0.3,0-0.7,0-1c0-0.3,0-0.7-0.1-1.1l-0.2-2.3l-0.3-2.2c-0.5-3-1.1-5.9-1.8-8.9c-1.5-5.8-3.7-11.5-6.6-16.8
			c-1.5-2.6-3.1-5.2-5-7.5c-1.9-2.3-4-4.6-6.3-6.2c-0.6-0.4-1.2-0.7-1.8-1c-0.6-0.2-1.3-0.4-1.6-0.3c0,0-0.1,0-0.1,0
			c0,0-0.1,0-0.1,0.1c0,0-0.1,0-0.1,0.1l-0.2,0.2c-0.2,0.2-0.5,0.4-0.7,0.7l-0.7,0.8l-0.6,0.9c-1.4,2.5-2.3,5.5-2.8,8.4
			c-1,6-1.2,12.1-1,18.3c0.2,6.1,0.7,12.3,1.5,18.4l0,0.3l-0.3,0.1c-1.1,0.3-2.2,0.7-3.2,1.3c-1,0.5-2,1.2-2.9,2
			c-0.9,0.8-1.6,1.7-2.2,2.7c-0.6,1-0.9,2.1-1.2,3.3L229.8,325z"/>
	</g>
	<g>
		<path class="st6" d="M314.8,246.1c0-7.5,8-10.8,8-10.8s-12.1-38.8-2.9-48.7c3.6-3.9,25.7,11.4,32.9,42.1
			c2.9,12.4-14.8,37.4-14.8,37.4"/>
		<path class="st5" d="M314.6,246.1c0-1.2,0.1-2.4,0.6-3.5c0.4-1.1,1-2.2,1.8-3.1c0.8-0.9,1.6-1.8,2.6-2.5c1-0.7,2-1.4,3.1-1.9
			l-0.2,0.4c-1.9-5.9-3.4-11.9-4.7-17.9c-1.2-6.1-2.2-12.2-2.2-18.5c0-3.1,0.3-6.3,1.5-9.4l0.5-1.1l0.6-1.1c0.2-0.4,0.5-0.7,0.8-1
			c0.2-0.3,0.8-0.9,1.3-1c1.1-0.4,2-0.2,2.9,0c0.8,0.2,1.6,0.5,2.4,0.8c3,1.4,5.5,3.3,7.9,5.4c2.3,2.1,4.5,4.4,6.5,6.9
			c3.9,4.9,7.3,10.3,9.8,16.1c1.3,2.9,2.4,5.8,3.2,8.8l0.6,2.3l0.6,2.3c0.1,0.4,0.2,0.8,0.3,1.2c0.1,0.4,0.1,0.9,0.2,1.3
			c0.1,0.9,0,1.7,0,2.5c-0.3,3.3-1.2,6.4-2.3,9.3c-0.6,1.5-1.2,2.9-1.8,4.3c-0.7,1.4-1.4,2.8-2.1,4.2c-3,5.5-6.4,10.7-10.2,15.6
			l-0.2-0.2c1.6-2.6,3.1-5.3,4.6-8c1.4-2.7,2.9-5.4,4.1-8.2c1.2-2.8,2.4-5.6,3.3-8.5c0.9-2.9,1.6-5.8,1.8-8.7c0-0.7,0-1.4-0.1-2.1
			c0-0.3-0.1-0.7-0.2-1c0-0.3-0.1-0.7-0.2-1l-0.6-2.2l-0.6-2.2c-0.9-2.9-2-5.7-3.1-8.5c-2.4-5.6-5.4-10.9-9-15.7
			c-1.8-2.4-3.8-4.7-6-6.7c-2.2-2-4.6-3.9-7.2-5.2c-0.6-0.3-1.3-0.6-2-0.8c-0.6-0.2-1.3-0.2-1.7-0.1c0,0-0.1,0-0.1,0
			c0,0-0.1,0.1-0.1,0.1c0,0-0.1,0-0.1,0.1l-0.2,0.2c-0.2,0.3-0.5,0.5-0.6,0.8l-0.5,0.9l-0.4,1c-1.1,2.7-1.4,5.7-1.5,8.7
			c-0.2,6.1,0.6,12.2,1.7,18.2c1.1,6,2.5,12.1,4.1,18l0.1,0.3l-0.3,0.1c-1,0.4-2.1,1-3,1.7c-0.9,0.7-1.8,1.5-2.6,2.4
			c-0.8,0.9-1.3,1.9-1.8,3c-0.5,1.1-0.6,2.2-0.7,3.4L314.6,246.1z"/>
	</g>
	<g>
		
			<linearGradient id="SVGID_5_" gradientUnits="userSpaceOnUse" x1="61.692" y1="201.8793" x2="116.6149" y2="201.8793" gradientTransform="matrix(0.3247 -0.9458 0.9458 0.3247 -140.1951 203.9078)">
			<stop  offset="0" style="stop-color:#ED1B8F"/>
			<stop  offset="1" style="stop-color:#ED1B8F"/>
		</linearGradient>
		<path class="st7" d="M60.1,204.6c0,0,26.2,24.6,32.2-15.7c6-40.3-3.7-31.4-22.9-17.9"/>
		<path class="st5" d="M60.2,204.5c3.3,2.8,7,5,11.1,6.3c2,0.6,4.1,0.8,6.2,0.6c2-0.3,4-1.1,5.5-2.4c1.6-1.3,2.8-3,3.8-4.8
			c1-1.8,1.7-3.8,2.4-5.8c1.2-4.1,1.9-8.2,2.4-12.5c0.5-4.3,0.9-8.5,1-12.8c0.1-2.1,0-4.2-0.2-6.2c-0.1-0.5-0.1-1-0.2-1.5l-0.1-0.7
			l-0.2-0.7c-0.1-0.5-0.3-0.8-0.4-1.3c-0.1-0.2-0.2-0.3-0.3-0.5c-0.1-0.2-0.2-0.3-0.3-0.4c-0.4-0.5-1-0.7-1.9-0.7
			c-0.8,0-1.8,0.3-2.7,0.6c-1.9,0.7-3.7,1.8-5.6,2.8c-3.7,2.2-7.3,4.5-11.1,6.6l-0.2-0.2c3.3-2.8,6.6-5.6,10.1-8.2
			c1.8-1.3,3.6-2.5,5.7-3.5c1.1-0.5,2.2-0.9,3.5-1c0.3,0,0.7-0.1,1,0c0.4,0.1,0.7,0.1,1.1,0.2c0.7,0.2,1.4,0.6,2,1.1
			c0.2,0.3,0.5,0.5,0.7,0.8l0.5,0.9c0.3,0.6,0.6,1.2,0.7,1.8c0.2,0.6,0.3,1.2,0.4,1.7c0.1,0.6,0.2,1.1,0.2,1.7
			c0.2,2.3,0.2,4.5,0,6.7c-0.3,4.4-0.9,8.7-1.6,13c-0.6,4.3-1.4,8.6-2.9,12.8c-0.8,2.1-1.6,4.1-2.8,6.1c-1.1,1.9-2.5,3.7-4.4,5.1
			c-1.8,1.4-4,2.3-6.3,2.4c-2.3,0.2-4.5-0.2-6.6-0.9c-4.2-1.5-7.8-4-11-6.9L60.2,204.5z"/>
	</g>
	<g>
		<path class="st8" d="M139.4,81.7l13.7,0.8c8.6-8.4,34.4,7.3,26.4,19s-33.7,37.1-37.7,21.2c-4.1-15.9-1.1-23.6-1.1-23.6"/>
		<path class="st5" d="M139.4,81.5l13.8,0.5l-0.3,0.1c1.8-1.8,4.5-2.6,6.9-2.6c2.5,0,5,0.5,7.3,1.3c2.3,0.8,4.6,2,6.6,3.4
			c2.1,1.4,3.9,3.1,5.5,5.1c0.8,1,1.5,2.1,2,3.3c0.5,1.2,0.9,2.5,0.9,3.9c0,1.3-0.2,2.7-0.7,4c-0.1,0.3-0.3,0.6-0.4,0.9
			c-0.2,0.3-0.3,0.6-0.5,0.9c-0.3,0.5-0.7,1-1.1,1.5c-2.9,4-6.1,7.7-9.5,11.2c-3.4,3.5-7,6.9-11.1,9.7c-2,1.4-4.2,2.7-6.7,3.6
			c-1.2,0.5-2.5,0.8-4,0.9c-1.4,0.1-3-0.2-4.3-1.1c-1.3-0.9-2.2-2.2-2.7-3.5c-0.2-0.6-0.4-1.3-0.6-1.9l-0.4-1.8
			c-0.3-1.2-0.4-2.4-0.6-3.6c-0.1-1.2-0.3-2.4-0.4-3.7c-0.2-2.4-0.2-4.9,0-7.4c0.2-2.4,0.6-4.9,1.5-7.2l0.3,0.1
			c-0.5,2.3-0.6,4.7-0.5,7.1c0.1,2.4,0.4,4.8,0.7,7.1c0.4,2.4,0.9,4.7,1.5,7l0.5,1.7c0.2,0.6,0.4,1,0.5,1.5c0.4,0.9,1,1.7,1.7,2.1
			c0.7,0.5,1.6,0.6,2.6,0.5c1-0.1,2-0.3,3.1-0.8c2.1-0.8,4.1-2,6-3.3c3.9-2.6,7.5-5.7,11-9.1c3.4-3.3,6.7-6.9,9.6-10.6
			c0.4-0.5,0.7-1,1.1-1.4c0.2-0.2,0.3-0.5,0.4-0.7c0.1-0.2,0.3-0.5,0.4-0.7c0.5-1,0.7-2,0.7-3.1c0-1.1-0.3-2.1-0.7-3.2
			c-0.4-1-1-2-1.6-3c-1.4-1.9-3.1-3.5-5-4.9c-1.9-1.4-4-2.6-6.2-3.4c-2.2-0.9-4.5-1.5-6.8-1.5c-2.3-0.1-4.7,0.6-6.4,2.1l-0.1,0.1
			l-0.2,0l-13.7-1L139.4,81.5z"/>
	</g>
	<g>
		<path d="M58,89.1c3,1.2,6.2,1.6,9.2,0.9c3-0.7,5.7-2.4,8-4.5c2.3-2.1,4.3-4.5,6.1-7.2c1.8-2.6,3.4-5.4,4.8-8.2
			c2.9-5.6,5.1-11.7,8-17.4c1.4-2.9,2.8-5.8,4.7-8.6c0.5-0.7,0.9-1.4,1.6-2.1c0.3-0.3,0.7-0.7,1.3-1l0.2-0.1l0.2,0l0.3-0.1
			c0.2-0.1,0.4-0.1,0.6-0.2c0.8-0.2,1.7-0.3,2.6-0.3c0.4,0,0.9,0.1,1.4,0.3c0.4,0.2,0.9,0.6,0.9,1.2l-0.4,0
			c-0.1-0.3-0.4-0.4-0.7-0.4c-0.3,0-0.7,0-1,0.1c-0.7,0.2-1.4,0.5-2.1,0.8l-0.5,0.3l-0.3,0.1l-0.1,0.1c0,0,0,0,0,0
			c-0.1,0.1-0.3,0.3-0.4,0.6c-0.3,0.6-0.7,1.3-1,2c-0.6,1.4-1.2,2.9-1.7,4.4l-1.7,4.5c-1.2,3-2.5,6-4,8.8c-1.5,2.9-3.1,5.7-4.8,8.5
			c-1.7,2.8-3.5,5.5-5.5,8.2c-2,2.6-4.3,5.1-6.9,7.1c-2.6,2.1-5.7,3.7-9,4.2c-1.7,0.3-3.4,0.2-5-0.1c-1.6-0.3-3.2-0.9-4.6-1.6
			L58,89.1z"/>
	</g>
	<g>
		<path d="M29.4,108.3c-1.5-2.3-2.3-5.1-2.3-7.9c0.1-2.8,1-5.8,2.8-8.2c1.7-2.4,4.2-4.3,7-5.2c2.7-0.9,5.8-1,8.3,0.2
			c-2.5,1.3-4.4,2.6-6.1,3.9c-1.7,1.4-3.1,2.9-4.3,4.5c-1.2,1.6-2.2,3.5-3,5.6C31,103.3,30.4,105.6,29.4,108.3z"/>
	</g>
	
		<radialGradient id="SVGID_6_" cx="41.9641" cy="99.232" r="10.198" gradientTransform="matrix(0.866 0.5 -0.7316 1.2671 77.1269 -44.1358)" gradientUnits="userSpaceOnUse">
		<stop  offset="0" style="stop-color:#F49EC4"/>
		<stop  offset="1" style="stop-color:#F49EC4;stop-opacity:0"/>
	</radialGradient>
	<path class="st9" d="M47.8,106.6c4.8-8.4,5.7-17,1.9-19.2s-10.9,2.8-15.7,11.2s-5.7,17-1.9,19.2S43,115,47.8,106.6z"/>
</g>
</svg>
