<?xml version="1.0" encoding="utf-8"?>
<!-- Generator: Adobe Illustrator 22.1.0, SVG Export Plug-In . SVG Version: 6.00 Build 0)  -->
<svg version="1.1" xmlns="http://www.w3.org/2000/svg" xmlns:xlink="http://www.w3.org/1999/xlink" x="0px" y="0px"
	 viewBox="0 0 2178 1635" style="enable-background:new 0 0 2178 1635;" xml:space="preserve">
<style type="text/css">
	.st0{display:none;}
	.st1{fill:url(#SVGID_1_);}
	.st2{fill:url(#SVGID_2_);}
	.st3{fill:url(#SVGID_3_);}
	.st4{fill:url(#SVGID_4_);}
	.st5{fill:#FFFFFF;}
	.st6{fill:#F062A4;}
	.st7{fill:url(#SVGID_5_);}
	.st8{fill:#EF569F;}
	.st9{fill:#FEE545;}
	.st10{fill:url(#SVGID_6_);}
	.st11{fill:url(#SVGID_7_);}
	.st12{fill:url(#SVGID_8_);}
	.st13{fill:url(#SVGID_9_);}
	.st14{fill:url(#SVGID_10_);}
	.st15{fill:url(#SVGID_11_);}
	.st16{fill:none;stroke:#000000;stroke-width:3;stroke-miterlimit:10;}
</style>
<g id="Layer_2" class="st0">
	
		<image style="display:inline;overflow:visible;" width="1300" height="910" xlink:href="../../../private/var/folders/pb/pvh9g7y943zdqfzwb2yt2t900000gn/T/9314562-hand-pointing-down-with-space-for-insert-text-or-design.jpg"  transform="matrix(0.3562 0 0 0.3562 -12 1246.75)">
	</image>
</g>
<g id="Layer_1">
	<path class="st9" d="M2177.5-0.5L353,1330c-7,17-60,64-74,62c-7.4-1.1-14.8,7.4-20.9,16.3c-5.4,8-9.8,16.3-12.1,18.7
		c-1.3,1.3-4.5,4.7-8.7,8.8c-11.5,11.2-30.7,27.5-40.3,20.2c-7.4-5.7-10.9-12.7-9.2-22c1.3-6.9,5.5-15.2,13.2-25
		c13.2-16.8,24.8-23,32.4-35.2c-7.3-5.5-16.7-14.8-23.5-24.5c-10.4,12.5-35.4,35.1-47.8,45.4c-3.8,3.1-6.4,5.1-7.1,5.3
		c-3,1-2,8-18,40s-13,32-31,36s18-83,19-87s12-16,14-20s21-31,25-36s8-23,12-26s9-8,23-9s103.5-46.5,144-53L2069.5-0.5H2177.5z"/>
	<path class="st9" d="M233.4,1373.8c2.8-4.5,5-9.8,6.6-16.8c6-26,6-35,6-35"/>
	<path class="st9" d="M210.5,1348.5c-0.2,0.3-0.4,0.5-0.6,0.8"/>
	<path class="st9" d="M209.9,1349.3c-6.1-8.6-10.2-17.6-8.9-24.3"/>
	<path class="st9" d="M235.6,1375.4c-0.7-0.5-1.4-1-2.2-1.6"/>
	<path class="st9" d="M233.4,1373.8c-7.6,12.3-19.2,18.4-32.4,35.2c-7.7,9.9-11.9,18.1-13.2,25c-10.1-3.1-28-10.6-29.8-15
		c-1.6-4,2.4-18.5,4.1-24.3c12.4-10.3,37.4-32.9,47.8-45.4C216.7,1358.9,226.1,1368.2,233.4,1373.8z"/>
	<path class="st9" d="M191.4,1435c-1-0.2-2.2-0.6-3.6-1"/>
	<path class="st9" d="M162.8,1392.2c0,0-0.3,0.9-0.7,2.4"/>
	<path class="st9" d="M270,1429c-2.6,10.3-26.1,7.7-32.7,6.8c4.2-4.1,7.4-7.5,8.7-8.8c2.4-2.4,6.7-10.7,12.1-18.7
		C262.7,1411.6,272.3,1419.8,270,1429z"/>
	<path class="st9" d="M258.1,1408.3c-1.4-1-2.3-1.5-2.3-1.5"/>
	<path class="st9" d="M237.3,1435.8c-1.1-0.2-1.7-0.3-1.7-0.3"/>
	<g>
		<path class="st16" d="M210,1350c-13,16-52,49-55,50s-2,8-18,40s-13,32-31,36s18-83,19-87s12-16,14-20s21-31,25-36s8-23,12-26
			s9-8,23-9s103.5-46.5,144-53L2069.5-0.5h108L353,1330c-7,17-60,64-74,62s-28,30-33,35s-36,39-49,29s-14-24,4-47s33-26,39-52
			s6-35,6-35"/>
		<path class="st16" d="M233.6,1373.4C220,1364,198,1340,201,1325"/>
		<path class="st16" d="M162.8,1394.2c0,0-6.8,19.8-4.8,24.8s20.7,12,29.3,14"/>
		<path class="st16" d="M237.5,1435.5c0,0,29.5,5.5,32.5-6.5s-12.2-20.2-12.2-20.2"/>
	</g>
</g>
</svg>
